<?xml version="1.0" encoding="UTF-8"?>
<svg version="1.1" xmlns="http://www.w3.org/2000/svg" width="931" height="931">
<path d="M0 0 C0.97694824 0.53995605 0.97694824 0.53995605 1.97363281 1.09082031 C10.68607187 5.97133967 18.46236352 11.4091198 26 18 C27.09248047 18.91072266 27.09248047 18.91072266 28.20703125 19.83984375 C32.96764509 23.85405159 37.06642583 28.17793886 41 33 C41.76183594 33.92425781 42.52367187 34.84851563 43.30859375 35.80078125 C59.8919792 56.36208212 70.72429734 80.86217112 76.25 106.625 C76.40106201 107.32729736 76.55212402 108.02959473 76.70776367 108.75317383 C81.26318495 131.49430959 80 152.23790509 80 176 C-14.38 176 -108.76 176 -206 176 C-199.90172958 215.63875771 -188.39890844 250.46894016 -155 275 C-124.07771378 296.24030825 -89.11220588 303.14180707 -52.50585938 296.49609375 C-20.24963515 290.11021616 8.2078208 269.60875373 27 243 C27.66 242.01 28.32 241.02 29 240 C31.21463013 239.63923645 31.21463013 239.63923645 34.00048828 239.65942383 C35.56188034 239.65976372 35.56188034 239.65976372 37.15481567 239.66011047 C38.8454866 239.68333626 38.8454866 239.68333626 40.5703125 239.70703125 C42.29735916 239.71339851 42.29735916 239.71339851 44.05929565 239.71989441 C47.74809855 239.73672948 51.43636136 239.77439126 55.125 239.8125 C57.62108588 239.82754056 60.11718029 239.84123005 62.61328125 239.85351562 C68.74237275 239.8866488 74.8711478 239.93689611 81 240 C80.27040439 245.1547812 78.65878825 249.0287363 76.0625 253.5 C75.66353516 254.19561035 75.26457031 254.8912207 74.85351562 255.60791016 C68.90403093 265.79281728 62.12058428 275.15277406 54.06640625 283.78125 C52.22067316 285.76305793 50.48389326 287.79603216 48.75 289.875 C20.64845587 321.8991853 -20.31893505 340.31122583 -62.58743286 343.17532349 C-67.701165 343.40020053 -72.80932873 343.42900938 -77.92724609 343.39111328 C-80.50021307 343.37499867 -83.07161034 343.39110481 -85.64453125 343.41015625 C-101.29806256 343.43077439 -116.84163122 341.64836225 -131.9375 337.375 C-132.83807129 337.12339111 -133.73864258 336.87178223 -134.66650391 336.61254883 C-178.19316212 323.89991688 -214.06125621 294.48990536 -236.25 255.125 C-247.5508686 234.4309693 -254.71627137 212.3404596 -258 189 C-258.27650391 187.06447266 -258.27650391 187.06447266 -258.55859375 185.08984375 C-259.34245183 177.69873165 -259.24438324 170.23728573 -259.25 162.8125 C-259.25067474 162.01142822 -259.25134949 161.21035645 -259.25204468 160.38500977 C-259.23468929 147.38695788 -258.60299154 134.77156775 -256 122 C-255.83371094 121.17226074 -255.66742187 120.34452148 -255.49609375 119.49169922 C-246.0988276 74.46313225 -220.19741019 34.01578654 -181.79077148 8.43310547 C-158.98549084 -6.35376247 -134.1017533 -15.86727045 -107 -19 C-106.1028125 -19.11085938 -105.205625 -19.22171875 -104.28125 -19.3359375 C-68.5867552 -23.04575859 -31.52304457 -17.44940778 0 0 Z M-176.29882812 65.09179688 C-180.71855482 70.04940076 -184.49783965 75.36479136 -188 81 C-188.35642578 81.57121582 -188.71285156 82.14243164 -189.08007812 82.73095703 C-198.49659241 98.19537069 -205 116.83561334 -205 135 C-128.11 135 -51.22 135 28 135 C28 127.26138229 27.98989737 120.81157802 26.4375 113.4375 C26.17296021 112.16567871 26.17296021 112.16567871 25.90307617 110.86816406 C21.57585673 91.28237485 13.25032507 73.13942764 0 58 C-0.90105469 56.88431641 -0.90105469 56.88431641 -1.8203125 55.74609375 C-17.51665158 36.86451431 -41.09868322 27.19179075 -65 24 C-65.83015625 23.88914062 -66.6603125 23.77828125 -67.515625 23.6640625 C-109.73078088 18.98753326 -147.70116295 34.33930225 -176.29882812 65.09179688 Z " fill="#FFFFFF" transform="translate(850,305)"/>
<path d="M0 0 C0.72901016 -0.00570007 1.45802032 -0.01140015 2.2091217 -0.01727295 C3.74787981 -0.02666919 5.28665754 -0.03323538 6.82543945 -0.03710938 C9.12294075 -0.04671934 11.41950842 -0.07775301 13.71679688 -0.109375 C38.81218439 -0.28804209 62.64705364 7.25037886 82.22265625 23.203125 C83.06183594 23.87859375 83.90101563 24.5540625 84.765625 25.25 C104.96326083 42.41016191 114.19519996 66.68714007 122.22265625 91.203125 C122.4429248 90.68105469 122.66319336 90.15898437 122.89013672 89.62109375 C130.43766536 71.89507275 139.13553503 56.40681539 152.22265625 42.203125 C153.08503906 41.25824219 153.94742187 40.31335938 154.8359375 39.33984375 C170.78579001 22.63385008 191.86741305 10.06301331 214.22265625 4.203125 C214.87766113 4.01137695 215.53266602 3.81962891 216.20751953 3.62207031 C239.09041595 -2.95884243 268.46279195 -2.70370511 291.22265625 4.203125 C292.18751953 4.48397949 292.18751953 4.48397949 293.171875 4.77050781 C307.08741055 8.92364961 319.00643271 16.10055019 330.22265625 25.203125 C331.08761719 25.90179688 331.95257813 26.60046875 332.84375 27.3203125 C352.58293247 44.13403111 363.40202049 68.70797026 369.53515625 93.390625 C369.76541504 94.29530518 369.99567383 95.19998535 370.23291016 96.13208008 C374.70553921 115.37947972 375.670824 135.10515167 375.56323242 154.78735352 C375.56238299 157.01761361 375.56286744 159.24787454 375.56455994 161.47813416 C375.56540898 167.44348206 375.5479632 173.40864324 375.52683806 179.37394834 C375.50788616 185.64121086 375.50630642 191.90847923 375.50276184 198.17576599 C375.4945432 208.66611846 375.47589711 219.15640818 375.44897461 229.64672852 C375.42131056 240.43741528 375.40013798 251.22808362 375.38745117 262.01879883 C375.386663 262.68729174 375.38587483 263.35578465 375.38506278 264.04453493 C375.38114681 267.39916906 375.37735589 270.75380332 375.37362707 274.10843766 C375.34239998 301.80671507 375.28913039 329.50491166 375.22265625 357.203125 C367.30265625 357.203125 359.38265625 357.203125 351.22265625 357.203125 C351.2145694 354.55622147 351.20648254 351.90931793 351.19815063 349.1822052 C351.12086054 324.18596955 351.03285697 299.18978776 350.93512917 274.19362354 C350.8851461 261.34418219 350.83870231 248.49474676 350.80078125 235.64526367 C350.76769501 224.43716496 350.72777376 213.22911426 350.67986619 202.02106875 C350.65476544 196.09424145 350.632937 190.16744532 350.61931229 184.24057961 C350.60634118 178.64522931 350.58413004 173.04998684 350.55527306 167.45469666 C350.54631337 165.41719426 350.54053478 163.37967457 350.53844261 161.34215355 C350.51703407 143.6363311 349.63219254 125.9613231 346.03515625 108.578125 C345.82084961 107.53599854 345.60654297 106.49387207 345.38574219 105.42016602 C340.92012869 84.78960014 332.51402805 65.91075887 318.22265625 50.203125 C317.28873047 49.14738281 317.28873047 49.14738281 316.3359375 48.0703125 C301.54469033 32.2557715 281.06645364 23.71284772 259.62890625 22.85546875 C225.75352124 22.13516959 197.63567462 32.59427318 173.03515625 55.953125 C151.87312742 77.94775824 139.39143046 107.28101176 132.97265625 136.765625 C132.82159424 137.44729736 132.67053223 138.12896973 132.51489258 138.83129883 C129.47699623 153.75005996 128.9211287 168.79432141 128.90380859 183.96337891 C128.8944822 185.86749179 128.88430964 187.77160068 128.87336731 189.67570496 C128.84635839 194.78397187 128.83100558 199.89221168 128.81793928 205.00053072 C128.80217956 210.36166226 128.77543117 215.72273944 128.74990845 221.08383179 C128.70334588 231.20863672 128.66649364 241.33345215 128.63323557 251.45830858 C128.59485387 262.99662981 128.54548641 274.53489614 128.49525142 286.0731709 C128.39226702 309.78311553 128.30328861 333.49309472 128.22265625 357.203125 C119.97265625 357.203125 111.72265625 357.203125 103.22265625 357.203125 C103.21679001 354.41032578 103.21092377 351.61752655 103.20487976 348.74009705 C103.14951549 323.0340972 103.07944664 297.32816911 102.99366997 271.62225222 C102.98240397 268.242065 102.97126517 264.86187736 102.96020508 261.48168945 C102.95689955 260.47243483 102.95689955 260.47243483 102.95352725 259.44279123 C102.91830979 248.59780994 102.89335837 237.75282869 102.87230923 226.90781169 C102.85042241 215.75104491 102.81703567 204.59434703 102.77395469 193.4376412 C102.75015827 187.18321238 102.73134098 180.92886374 102.72504234 174.67439079 C102.71892944 168.76874326 102.69870995 162.86330055 102.66838074 156.95772934 C102.65969875 154.8081906 102.65585707 152.65862497 102.65764809 150.50906944 C102.67708701 116.36593939 98.08710882 79.20594002 75.22265625 52.203125 C74.71476563 51.55085938 74.206875 50.89859375 73.68359375 50.2265625 C61.08307333 34.64660868 41.96761609 25.3160153 22.22265625 23.203125 C8.11237433 22.2887494 -6.11859449 22.22733883 -19.77734375 26.203125 C-21.61039063 26.71359375 -21.61039063 26.71359375 -23.48046875 27.234375 C-37.84357444 31.60832488 -50.19136807 38.6626733 -61.77734375 48.203125 C-62.70160156 48.96238281 -63.62585938 49.72164063 -64.578125 50.50390625 C-97.5210239 78.97365339 -110.58044875 124.24958043 -113.77734375 166.203125 C-114.10509194 172.76225167 -114.08859687 179.32761245 -114.09619141 185.89331055 C-114.10552033 187.77786678 -114.11569323 189.66241898 -114.12663269 191.54696655 C-114.15361324 196.59732479 -114.1689857 201.64765567 -114.18206072 206.69806647 C-114.19783325 212.0004687 -114.22457735 217.30281615 -114.25009155 222.60517883 C-114.29663193 232.61661919 -114.3334947 242.62807013 -114.36676443 252.63956243 C-114.40516208 264.04973545 -114.45452521 275.45985312 -114.50474858 286.86997926 C-114.60769985 310.31432076 -114.69668948 333.7586971 -114.77734375 357.203125 C-122.69734375 357.203125 -130.61734375 357.203125 -138.77734375 357.203125 C-138.7854306 354.00975967 -138.79351746 350.81639435 -138.80184937 347.52626038 C-138.87758131 317.96265732 -138.96265598 288.39909512 -139.05739536 258.83554715 C-139.06990812 254.92836954 -139.08234184 251.02119169 -139.09472656 247.11401367 C-139.09719256 246.33645245 -139.09965855 245.55889123 -139.10219927 244.75776755 C-139.14148159 232.31265647 -139.17442115 219.86753679 -139.20484357 207.42240126 C-139.23641368 194.56821002 -139.27520005 181.71405382 -139.32013381 168.85990232 C-139.34505565 161.67549094 -139.3670432 154.4911002 -139.38068771 147.30665779 C-139.43724755 118.39129284 -139.70622058 89.5051759 -140.74072266 60.60717773 C-140.78357415 59.40966326 -140.82642564 58.21214878 -140.87057567 56.97834599 C-141.45216467 40.69637026 -141.45216467 40.69637026 -142.59503746 24.44673252 C-142.86149179 19.70595657 -142.77734375 14.95138305 -142.77734375 10.203125 C-134.85734375 10.203125 -126.93734375 10.203125 -118.77734375 10.203125 C-118.10887659 14.21392793 -117.62862334 17.67330274 -117.49609375 21.66674805 C-117.45935547 22.71191086 -117.42261719 23.75707367 -117.38476562 24.83390808 C-117.3315918 26.50747124 -117.3315918 26.50747124 -117.27734375 28.21484375 C-117.23673828 29.37885208 -117.19613281 30.54286041 -117.15429688 31.74214172 C-117.02492362 35.4581862 -116.90063284 39.17437404 -116.77734375 42.890625 C-116.65376656 46.58901045 -116.52896561 50.28733467 -116.40039062 53.98554993 C-116.3205809 56.28280121 -116.24358681 58.58015271 -116.16992188 60.87760925 C-115.93429497 67.68201424 -115.47230359 74.43006027 -114.77734375 81.203125 C-114.31585938 80.28273438 -113.854375 79.36234375 -113.37890625 78.4140625 C-106.00756797 63.99221302 -97.01069209 51.83201377 -85.77734375 40.203125 C-84.90335938 39.26597656 -84.029375 38.32882812 -83.12890625 37.36328125 C-62.0231243 15.29814557 -30.81446661 0.19279458 0 0 Z " fill="#FFFFFF" transform="translate(142.77734375,282.796875)"/>
</svg>
